<svg width="34" height="34" viewBox="0 0 34 34" fill="none" xmlns="http://www.w3.org/2000/svg">
<rect width="34" height="34" rx="3" fill="#F2F2F2"/>
<g clip-path="url(#clip0_1_4949)">
<path fill-rule="evenodd" clip-rule="evenodd" d="M11.6667 11.4444C11.8428 11.4467 12.011 11.5177 12.1355 11.6423C12.2601 11.7668 12.331 11.935 12.3333 12.1111V21.8889C12.331 22.065 12.2601 22.2332 12.1355 22.3577C12.011 22.4823 11.8428 22.5533 11.6667 22.5556C11.4906 22.5533 11.3223 22.4823 11.1978 22.3577C11.0733 22.2332 11.0023 22.065 11 21.8889V12.1111C11.0023 11.935 11.0733 11.7668 11.1978 11.6423C11.3223 11.5177 11.4906 11.4467 11.6667 11.4444Z" fill="black"/>
<path fill-rule="evenodd" clip-rule="evenodd" d="M15.2223 11.4444C15.3984 11.4467 15.5667 11.5177 15.6912 11.6423C15.8157 11.7668 15.8867 11.935 15.889 12.1111V21.8889C15.8867 22.065 15.8157 22.2332 15.6912 22.3577C15.5667 22.4823 15.3984 22.5533 15.2223 22.5556C15.0462 22.5533 14.878 22.4823 14.7535 22.3577C14.6289 22.2332 14.558 22.065 14.5557 21.8889V12.1111C14.558 11.935 14.6289 11.7668 14.7535 11.6423C14.878 11.5177 15.0462 11.4467 15.2223 11.4444Z" fill="black"/>
<path fill-rule="evenodd" clip-rule="evenodd" d="M18.7778 11.4444C18.9538 11.4467 19.1221 11.5177 19.2466 11.6423C19.3711 11.7668 19.4421 11.935 19.4444 12.1111V21.8889C19.4421 22.065 19.3711 22.2332 19.2466 22.3577C19.1221 22.4823 18.9538 22.5533 18.7778 22.5556C18.6017 22.5533 18.4334 22.4823 18.3089 22.3577C18.1844 22.2332 18.1134 22.065 18.1111 21.8889V12.1111C18.1134 11.935 18.1844 11.7668 18.3089 11.6423C18.4334 11.5177 18.6017 11.4467 18.7778 11.4444Z" fill="black"/>
<path fill-rule="evenodd" clip-rule="evenodd" d="M22.3334 11.4444C22.5095 11.4467 22.6777 11.5177 22.8023 11.6423C22.9268 11.7668 22.9978 11.935 23.0001 12.1111V21.8889C22.9978 22.065 22.9268 22.2332 22.8023 22.3577C22.6777 22.4823 22.5095 22.5533 22.3334 22.5556C22.1573 22.5533 21.9891 22.4823 21.8646 22.3577C21.74 22.2332 21.6691 22.065 21.6667 21.8889V12.1111C21.6691 11.935 21.74 11.7668 21.8646 11.6423C21.9891 11.5177 22.1573 11.4467 22.3334 11.4444Z" fill="black"/>
</g>
<defs>
<clipPath id="clip0_1_4949">
<rect width="12" height="12" fill="white" transform="translate(11 11)"/>
</clipPath>
</defs>
</svg>
