<svg width="34" height="34" viewBox="0 0 34 34" fill="none" xmlns="http://www.w3.org/2000/svg">
<rect width="34" height="34" rx="3" fill="#F2F2F2"/>
<g clip-path="url(#clip0_1_4932)">
<path fill-rule="evenodd" clip-rule="evenodd" d="M15.0801 11C15.2703 11.0025 15.452 11.0791 15.5865 11.2136C15.721 11.3481 15.7976 11.5298 15.8001 11.72V22.28C15.7976 22.4702 15.721 22.6519 15.5865 22.7864C15.452 22.9209 15.2703 22.9975 15.0801 23C14.8899 22.9975 14.7082 22.9209 14.5737 22.7864C14.4392 22.6519 14.3626 22.4702 14.3601 22.28V11.72C14.3626 11.5298 14.4392 11.3481 14.5737 11.2136C14.7082 11.0791 14.8899 11.0025 15.0801 11Z" fill="black"/>
<path fill-rule="evenodd" clip-rule="evenodd" d="M18.9202 11C19.1104 11.0025 19.2921 11.0791 19.4266 11.2136C19.5611 11.3481 19.6377 11.5298 19.6402 11.72V22.28C19.6377 22.4702 19.5611 22.6519 19.4266 22.7864C19.2921 22.9209 19.1104 22.9975 18.9202 23C18.73 22.9975 18.5483 22.9209 18.4138 22.7864C18.2793 22.6519 18.2027 22.4702 18.2002 22.28V11.72C18.2027 11.5298 18.2793 11.3481 18.4138 11.2136C18.5483 11.0791 18.73 11.0025 18.9202 11Z" fill="black"/>
</g>
<defs>
<clipPath id="clip0_1_4932">
<rect width="12" height="12" fill="white" transform="translate(11 11)"/>
</clipPath>
</defs>
</svg>
