<svg width="34" height="34" viewBox="0 0 34 34" fill="none" xmlns="http://www.w3.org/2000/svg">
<rect width="34" height="34" rx="3" fill="#F2F2F2"/>
<g clip-path="url(#clip0_1_4959)">
<path fill-rule="evenodd" clip-rule="evenodd" d="M11.5143 12.7143C11.6501 12.7161 11.7799 12.7708 11.876 12.8669C11.972 12.9629 12.0268 13.0927 12.0286 13.2286V20.7714C12.0268 20.9073 11.972 21.037 11.876 21.1331C11.7799 21.2292 11.6501 21.2839 11.5143 21.2857C11.3784 21.2839 11.2487 21.2292 11.1526 21.1331C11.0565 21.037 11.0018 20.9073 11 20.7714V13.2286C11.0018 13.0927 11.0565 12.9629 11.1526 12.8669C11.2487 12.7708 11.3784 12.7161 11.5143 12.7143Z" fill="black"/>
<path fill-rule="evenodd" clip-rule="evenodd" d="M14.2572 12.7143C14.3931 12.7161 14.5228 12.7708 14.6189 12.8669C14.715 12.9629 14.7697 13.0927 14.7715 13.2286V20.7714C14.7697 20.9073 14.715 21.037 14.6189 21.1331C14.5228 21.2292 14.3931 21.2839 14.2572 21.2857C14.1214 21.2839 13.9916 21.2292 13.8955 21.1331C13.7994 21.037 13.7447 20.9073 13.7429 20.7714V13.2286C13.7447 13.0927 13.7994 12.9629 13.8955 12.8669C13.9916 12.7708 14.1214 12.7161 14.2572 12.7143Z" fill="black"/>
<path fill-rule="evenodd" clip-rule="evenodd" d="M16.9999 12.7143C17.1357 12.7161 17.2655 12.7708 17.3616 12.8669C17.4576 12.9629 17.5124 13.0927 17.5142 13.2286V20.7714C17.5124 20.9073 17.4576 21.037 17.3616 21.1331C17.2655 21.2292 17.1357 21.2839 16.9999 21.2857C16.864 21.2839 16.7343 21.2292 16.6382 21.1331C16.5421 21.037 16.4874 20.9073 16.4856 20.7714V13.2286C16.4874 13.0927 16.5421 12.9629 16.6382 12.8669C16.7343 12.7708 16.864 12.7161 16.9999 12.7143Z" fill="black"/>
<path fill-rule="evenodd" clip-rule="evenodd" d="M19.7428 12.7143C19.8786 12.7161 20.0084 12.7708 20.1045 12.8669C20.2006 12.9629 20.2553 13.0927 20.2571 13.2286V20.7714C20.2553 20.9073 20.2006 21.037 20.1045 21.1331C20.0084 21.2292 19.8786 21.2839 19.7428 21.2857C19.607 21.2839 19.4772 21.2292 19.3811 21.1331C19.285 21.037 19.2303 20.9073 19.2285 20.7714V13.2286C19.2303 13.0927 19.285 12.9629 19.3811 12.8669C19.4772 12.7708 19.607 12.7161 19.7428 12.7143Z" fill="black"/>
<path fill-rule="evenodd" clip-rule="evenodd" d="M22.4857 12.7143C22.6216 12.7161 22.7513 12.7708 22.8474 12.8669C22.9435 12.9629 22.9982 13.0927 23 13.2286V20.7714C22.9982 20.9073 22.9435 21.037 22.8474 21.1331C22.7513 21.2292 22.6216 21.2839 22.4857 21.2857C22.3499 21.2839 22.2201 21.2292 22.124 21.1331C22.028 21.037 21.9732 20.9073 21.9714 20.7714V13.2286C21.9732 13.0927 22.028 12.9629 22.124 12.8669C22.2201 12.7708 22.3499 12.7161 22.4857 12.7143Z" fill="black"/>
</g>
<defs>
<clipPath id="clip0_1_4959">
<rect width="12" height="12" fill="white" transform="translate(11 11)"/>
</clipPath>
</defs>
</svg>
