<svg width="34" height="34" viewBox="0 0 34 34" fill="none" xmlns="http://www.w3.org/2000/svg">
<rect width="34" height="34" rx="3" fill="#F2F2F2"/>
<g clip-path="url(#clip0_1_4940)">
<path fill-rule="evenodd" clip-rule="evenodd" d="M13.1599 11C13.3501 11.0025 13.5318 11.0791 13.6663 11.2136C13.8008 11.3481 13.8775 11.5298 13.8799 11.72V22.28C13.8775 22.4702 13.8008 22.6519 13.6663 22.7864C13.5318 22.9209 13.3501 22.9975 13.1599 23C12.9698 22.9975 12.7881 22.9209 12.6536 22.7864C12.5191 22.6519 12.4424 22.4702 12.4399 22.28V11.72C12.4424 11.5298 12.5191 11.3481 12.6536 11.2136C12.7881 11.0791 12.9698 11.0025 13.1599 11Z" fill="black"/>
<path fill-rule="evenodd" clip-rule="evenodd" d="M17 11C17.1902 11.0025 17.3719 11.0791 17.5064 11.2136C17.6409 11.3481 17.7175 11.5298 17.72 11.72V22.28C17.7175 22.4702 17.6409 22.6519 17.5064 22.7864C17.3719 22.9209 17.1902 22.9975 17 23C16.8098 22.9975 16.6282 22.9209 16.4937 22.7864C16.3592 22.6519 16.2825 22.4702 16.28 22.28V11.72C16.2825 11.5298 16.3592 11.3481 16.4937 11.2136C16.6282 11.0791 16.8098 11.0025 17 11Z" fill="black"/>
<path fill-rule="evenodd" clip-rule="evenodd" d="M20.8399 11C21.0301 11.0025 21.2117 11.0791 21.3462 11.2136C21.4807 11.3481 21.5574 11.5298 21.5599 11.72V22.28C21.5574 22.4702 21.4807 22.6519 21.3462 22.7864C21.2117 22.9209 21.0301 22.9975 20.8399 23C20.6497 22.9975 20.468 22.9209 20.3335 22.7864C20.199 22.6519 20.1224 22.4702 20.1199 22.28V11.72C20.1224 11.5298 20.199 11.3481 20.3335 11.2136C20.468 11.0791 20.6497 11.0025 20.8399 11Z" fill="black"/>
</g>
<defs>
<clipPath id="clip0_1_4940">
<rect width="12" height="12" fill="white" transform="translate(11 11)"/>
</clipPath>
</defs>
</svg>
