<svg width="34" height="34" viewBox="0 0 34 34" fill="none" xmlns="http://www.w3.org/2000/svg">
<rect width="34" height="34" rx="3" fill="#F2F2F2"/>
<g clip-path="url(#clip0_1_4923)">
<path fill-rule="evenodd" clip-rule="evenodd" d="M23 13.16C22.9975 13.3502 22.9209 13.5319 22.7864 13.6664C22.6519 13.8009 22.4702 13.8775 22.28 13.88H11.72C11.5298 13.8775 11.3481 13.8009 11.2136 13.6664C11.0791 13.5319 11.0025 13.3502 11 13.16C11.0025 12.9698 11.0791 12.7881 11.2136 12.6536C11.3481 12.5191 11.5298 12.4425 11.72 12.44H22.28C22.4702 12.4425 22.6519 12.5191 22.7864 12.6536C22.9209 12.7881 22.9975 12.9698 23 13.16Z" fill="black"/>
<path fill-rule="evenodd" clip-rule="evenodd" d="M23 17C22.9975 17.1902 22.9209 17.3719 22.7864 17.5064C22.6519 17.6409 22.4702 17.7175 22.28 17.72H11.72C11.5298 17.7175 11.3481 17.6409 11.2136 17.5064C11.0791 17.3719 11.0025 17.1902 11 17C11.0025 16.8098 11.0791 16.6281 11.2136 16.4936C11.3481 16.3591 11.5298 16.2825 11.72 16.28H22.28C22.4702 16.2825 22.6519 16.3591 22.7864 16.4936C22.9209 16.6281 22.9975 16.8098 23 17Z" fill="black"/>
<path fill-rule="evenodd" clip-rule="evenodd" d="M23 20.84C22.9975 21.0302 22.9209 21.2119 22.7864 21.3464C22.6519 21.4809 22.4702 21.5575 22.28 21.56H11.72C11.5298 21.5575 11.3481 21.4809 11.2136 21.3464C11.0791 21.2119 11.0025 21.0302 11 20.84C11.0025 20.6498 11.0791 20.4681 11.2136 20.3336C11.3481 20.1991 11.5298 20.1225 11.72 20.12H22.28C22.4702 20.1225 22.6519 20.1991 22.7864 20.3336C22.9209 20.4681 22.9975 20.6498 23 20.84Z" fill="black"/>
</g>
<defs>
<clipPath id="clip0_1_4923">
<rect width="12" height="12" fill="white" transform="translate(11 11)"/>
</clipPath>
</defs>
</svg>
