<svg width="20" height="13" viewBox="0 0 20 13" fill="none" xmlns="http://www.w3.org/2000/svg">
<path d="M19.7693 5.65386C17.8115 2.33157 14.1601 0.111115 10 0.111115C5.83821 0.111115 2.18766 2.33313 0.23078 5.65386C0.0796862 5.91025 0 6.20242 0 6.50002C0 6.79762 0.0796862 7.08979 0.23078 7.34618C2.18859 10.6684 5.83995 12.8889 10 12.8889C14.1618 12.8889 17.8124 10.6669 19.7693 7.34615C19.9203 7.08976 20 6.7976 20 6.5C20 6.20241 19.9203 5.91024 19.7693 5.65386ZM10 11.2222C6.43904 11.2222 3.33019 9.32289 1.66668 6.5C3.19991 3.89816 5.96102 2.08091 9.17231 1.81226C9.51245 2.16243 9.72224 2.63993 9.72224 3.16667C9.72224 4.24056 8.85168 5.11111 7.77779 5.11111C6.70391 5.11111 5.83335 4.24056 5.83335 3.16667L5.83338 3.16521C5.47898 3.82789 5.27779 4.58486 5.27779 5.38889C5.27779 7.99691 7.392 10.1111 10 10.1111C12.608 10.1111 14.7222 7.99691 14.7222 5.38889C14.7222 4.31143 14.3611 3.31844 13.7537 2.52379C15.6842 3.32771 17.292 4.73285 18.3334 6.5C16.6699 9.32289 13.561 11.2222 10 11.2222Z" fill="black" stroke="black" stroke-width="0.0347222"/>
</svg>
