<svg width="120" height="37" viewBox="0 0 120 37" fill="none" xmlns="http://www.w3.org/2000/svg">
<g clip-path="url(#clip0_1_4620)">
<path d="M1.82239 37.2908H0.201111L2.30695 31.0648H4.31526L6.4211 37.2908H4.79982L3.33396 32.6334H3.2852L1.82239 37.2908ZM1.60602 34.8405H4.99486V35.9836H1.60602V34.8405ZM24.8287 33.3205H23.305C23.2846 33.1644 23.243 33.0236 23.18 32.8979C23.1171 32.7723 23.0337 32.6648 22.9302 32.5757C22.8265 32.4865 22.7036 32.4186 22.5614 32.3719C22.4212 32.3233 22.2658 32.299 22.0951 32.299C21.7924 32.299 21.5313 32.373 21.3119 32.521C21.0945 32.6689 20.9269 32.8827 20.8091 33.1624C20.6932 33.442 20.6353 33.7806 20.6353 34.1778C20.6353 34.5912 20.6942 34.9378 20.8121 35.2175C20.932 35.4951 21.0996 35.7049 21.315 35.8468C21.5323 35.9866 21.7894 36.0565 22.0859 36.0565C22.2526 36.0565 22.4039 36.0352 22.54 35.9927C22.6782 35.9501 22.7991 35.8883 22.9027 35.8072C23.0083 35.7241 23.0947 35.6238 23.1617 35.5063C23.2308 35.3866 23.2786 35.2519 23.305 35.102L24.8287 35.111C24.8023 35.3866 24.7221 35.6583 24.588 35.9258C24.4559 36.1933 24.2741 36.4375 24.0424 36.6584C23.8109 36.8773 23.5285 37.0516 23.1952 37.1813C22.8641 37.311 22.4842 37.3759 22.0555 37.3759C21.4907 37.3759 20.9848 37.2522 20.5378 37.005C20.0929 36.7557 19.7414 36.393 19.4834 35.9167C19.2254 35.4404 19.0963 34.8607 19.0963 34.1778C19.0963 33.4928 19.2274 32.9121 19.4895 32.4358C19.7515 31.9595 20.1061 31.5978 20.5531 31.3505C21 31.1033 21.5008 30.9797 22.0555 30.9797C22.4334 30.9797 22.7828 31.0323 23.1038 31.1377C23.4248 31.2411 23.7072 31.393 23.951 31.5937C24.1949 31.7924 24.3929 32.0366 24.5453 32.3264C24.6977 32.6162 24.7922 32.9476 24.8287 33.3205ZM39.2464 37.2908H37.6251L39.731 31.0648H41.7392L43.8451 37.2908H42.2238L40.7579 32.6334H40.7092L39.2464 37.2908ZM39.03 34.8405H42.4189V35.9836H39.03V34.8405ZM59.1877 37.2908H56.8807V31.0648H59.1846C59.8205 31.0648 60.3681 31.1894 60.8272 31.4387C61.2885 31.6859 61.644 32.0426 61.8939 32.5088C62.1438 32.9729 62.2687 33.5282 62.2687 34.1747C62.2687 34.8232 62.1438 35.3806 61.8939 35.8468C61.646 36.3129 61.2915 36.6706 60.8303 36.9199C60.3691 37.1671 59.8216 37.2908 59.1877 37.2908ZM58.3892 36.0079H59.1298C59.4792 36.0079 59.7749 35.9491 60.0166 35.8315C60.2604 35.712 60.4443 35.5184 60.5682 35.2509C60.6942 34.9813 60.7571 34.6226 60.7571 34.1747C60.7571 33.7268 60.6942 33.3702 60.5682 33.1046C60.4422 32.8371 60.2563 32.6446 60.0105 32.527C59.7667 32.4074 59.466 32.3476 59.1085 32.3476H58.3892V36.0079ZM75.5134 37.2908V31.0648H79.8647V32.2868H77.0218V33.5636H79.6422V34.7888H77.0218V36.0687H79.8647V37.2908H75.5134ZM93.1731 31.0648H95.0414L96.6261 34.9195H96.6996L98.2843 31.0648H100.152V37.2908H98.6836V33.4664H98.6312L97.1323 37.2512H96.1934L94.6938 33.4451H94.6421V37.2908H93.1731V31.0648ZM113.146 31.0648H114.831L116.151 33.6701H116.206L117.525 31.0648H119.21L116.928 35.2114V37.2908H115.428V35.2114L113.146 31.0648Z" fill="#191919"/>
<path d="M12.6255 2.09065L9.94182 5.02888C8.52364 4.20182 7.50546 3.78104 6.88727 3.78104C6.65144 3.78318 6.41885 3.83616 6.20545 3.93634C5.99206 4.03651 5.80289 4.18152 5.65091 4.36143C5.48185 4.52956 5.34837 4.72988 5.25842 4.95046C5.16847 5.17105 5.12387 5.40743 5.12727 5.64555C5.12727 6.63221 6.02182 7.48104 7.81818 8.20653C8.85411 8.62006 9.84982 9.12768 10.7927 9.7228C11.4966 10.2068 12.0749 10.8509 12.48 11.6018C12.9321 12.3951 13.1655 13.2938 13.1564 14.2063C13.1548 15.0591 12.968 15.9015 12.6089 16.6755C12.2499 17.4495 11.7271 18.1367 11.0764 18.6899C9.74407 19.936 7.97884 20.6174 6.15273 20.5906C4.07273 20.5906 2.02909 19.6112 0 17.6887L2.84364 14.3804C4.10909 15.6863 5.30182 16.3465 6.40727 16.3465C6.6937 16.3303 6.9741 16.2578 7.23243 16.1333C7.49076 16.0089 7.72196 15.8348 7.91273 15.621C8.12771 15.4423 8.30327 15.2211 8.42844 14.9714C8.5536 14.7217 8.62567 14.4489 8.64 14.1701C8.64 13.1254 7.53695 12.2064 5.33091 11.4132C4.37689 11.1127 3.47078 10.6778 2.64 10.1218C2.05797 9.65802 1.60063 9.05724 1.30909 8.37339C0.933433 7.63571 0.734284 6.82117 0.727273 5.99378C0.692334 5.18691 0.829171 4.3818 1.12877 3.63151C1.42837 2.88122 1.88394 2.20276 2.46545 1.64084C3.08186 1.0805 3.80357 0.647705 4.58879 0.367509C5.37402 0.0873135 6.20717 -0.0347153 7.04 0.00848822C9.10306 -0.0521127 11.1079 0.695258 12.6255 2.09065ZM33.0691 17.5944L35.5418 20.431L32.6327 22.2738L30.3855 19.5967C28.9381 20.1664 27.4025 20.4806 25.8473 20.5254C24.4959 20.5696 23.1503 20.3303 21.8975 19.8229C20.6446 19.3155 19.5126 18.5513 18.5745 17.5799C17.6131 16.5685 16.8643 15.3754 16.3721 14.0708C15.8801 12.7663 15.6546 11.3768 15.7091 9.98398C15.7174 7.42235 16.7089 4.96122 18.48 3.10633C19.4009 2.08516 20.5356 1.27836 21.8036 0.743047C23.0717 0.207722 24.4422 -0.0430455 25.8182 0.00848822C27.1524 -0.0248938 28.4793 0.215458 29.7165 0.714643C30.9538 1.21382 32.0751 1.96121 33.0109 2.91045C33.963 3.84968 34.7122 4.97336 35.2125 6.21232C35.7128 7.45129 35.9536 8.7793 35.92 10.1146C35.9741 12.8774 34.928 15.5489 33.0109 17.5436L33.0691 17.5944ZM27.5564 16.2885L25.4545 13.7928L28.2909 11.9428L30.2327 14.2354C31.0943 13.1486 31.5171 11.7796 31.4182 10.3975C31.5111 8.71568 30.9657 7.06064 29.8909 5.76163C29.3868 5.18531 28.7586 4.73004 28.0535 4.42981C27.3482 4.12956 26.5841 3.99211 25.8182 4.0277C25.0669 4.00688 24.3201 4.14921 23.6294 4.44485C22.9387 4.74048 22.3207 5.18236 21.8182 5.73986C20.7449 6.95942 20.1825 8.54381 20.2473 10.1654C20.1824 11.8041 20.7117 13.4113 21.7382 14.6924C22.1901 15.2595 22.7671 15.7149 23.4244 16.0232C24.0815 16.3315 24.8012 16.4844 25.5273 16.4699C26.2073 16.4621 26.8857 16.4014 27.5564 16.2885ZM39.6218 0.27692H43.8764V12.5087C43.8307 13.5085 44.1717 14.4877 44.8291 15.2438C45.1433 15.5864 45.5287 15.8567 45.9582 16.0359C46.3876 16.215 46.8511 16.2987 47.3164 16.2812C47.822 16.3118 48.3285 16.2352 48.8024 16.0564C49.2762 15.8776 49.7067 15.6007 50.0655 15.2438C50.7611 14.4253 51.1105 13.369 51.04 12.2983V0.27692H55.2727V13.2269C55.2519 14.4574 54.9536 15.6675 54.4 16.7673C53.83 17.9856 52.8708 18.9808 51.6727 19.5967C50.4038 20.26 48.9888 20.5966 47.5564 20.5761C44.8145 20.5761 42.8 19.8144 41.5273 18.2836C40.3346 16.9571 39.6585 15.2478 39.6218 13.4663V0.27692ZM65.3091 0.27692H68.6473L76.8364 20.2787H72.4727L70.8291 16.3465H63.1782L61.6073 20.2787H57.2873L65.3091 0.27692ZM66.9818 6.80633L64.6473 12.7046H69.3964L66.9818 6.8281V6.80633ZM79.9491 0.27692H86.5455C88.2756 0.184026 89.9767 0.752159 91.3018 1.86574C91.8873 2.40986 92.3462 3.07467 92.648 3.8139C92.9491 4.55313 93.0858 5.349 93.0473 6.14614C93.0247 7.25672 92.7513 8.34785 92.2473 9.33829C91.6145 10.5368 90.5644 11.4632 89.2945 11.9428L94.8945 20.2787H89.9491L84.7564 12.545H84.2691V20.2787H79.9491V0.27692ZM84.3127 3.84633V9.05535H85.2436C87.4931 9.05535 88.6182 8.13637 88.6182 6.29849C88.6305 5.95067 88.5564 5.60522 88.4029 5.29268C88.2495 4.98013 88.0211 4.71013 87.7382 4.50653C87.0204 4.02596 86.1644 3.79399 85.3018 3.84633H84.3127ZM98.3491 0.27692H109.636V4.2381H102.669V16.3175H112.56V20.2787H98.3491V0.27692ZM110.713 8.32986H106.8V12.2257H110.713V8.32986Z" fill="#191919"/>
<path d="M112.327 0.27702H119.142V20.2788H114.887V4.2382H111.585L112.327 0.27702Z" fill="#ED1C24"/>
</g>
<defs>
<clipPath id="clip0_1_4620">
<rect width="120" height="37" fill="white"/>
</clipPath>
</defs>
</svg>
