<svg width="54" height="55" viewBox="0 0 54 55" fill="none" xmlns="http://www.w3.org/2000/svg">
<rect y="0.299988" width="54" height="54" rx="27" fill="#B1B1B1"/>
<path d="M14.8523 23.3399C14.9856 23.5733 15.1389 23.7766 15.3123 23.9499C15.4856 24.1166 15.6723 24.2433 15.8723 24.3299C16.0789 24.4166 16.2856 24.4599 16.4923 24.4599C16.6656 24.4599 16.8123 24.4266 16.9323 24.3599C17.0523 24.2866 17.1123 24.1733 17.1123 24.0199C17.1123 23.9266 17.0789 23.8466 17.0123 23.7799C16.9523 23.7133 16.8289 23.6366 16.6423 23.5499C16.4556 23.4633 16.1723 23.3466 15.7923 23.1999C15.6256 23.1333 15.4323 23.0433 15.2123 22.9299C14.9989 22.8166 14.7923 22.6699 14.5923 22.4899C14.3989 22.3099 14.2356 22.0899 14.1023 21.8299C13.9756 21.5699 13.9123 21.2633 13.9123 20.9099C13.9123 20.4499 14.0356 20.0633 14.2823 19.7499C14.5289 19.4366 14.8556 19.1999 15.2623 19.0399C15.6689 18.8799 16.1156 18.7999 16.6023 18.7999C17.1289 18.7999 17.5789 18.8799 17.9523 19.0399C18.3323 19.1999 18.6423 19.3999 18.8823 19.6399C19.1289 19.8799 19.3156 20.1199 19.4423 20.3599L17.8123 21.2599C17.7056 21.0933 17.5856 20.9633 17.4523 20.8699C17.3256 20.7699 17.1956 20.6966 17.0623 20.6499C16.9289 20.6033 16.7989 20.5799 16.6723 20.5799C16.5189 20.5799 16.3923 20.6066 16.2923 20.6599C16.1989 20.7133 16.1523 20.7966 16.1523 20.9099C16.1523 21.0499 16.2189 21.1666 16.3523 21.2599C16.4923 21.3466 16.6756 21.4299 16.9023 21.5099C17.1289 21.5833 17.3789 21.6699 17.6523 21.7699C17.9323 21.8699 18.1823 21.9899 18.4023 22.1299C18.6223 22.2633 18.8089 22.4199 18.9623 22.5999C19.1223 22.7799 19.2423 22.9833 19.3223 23.2099C19.4023 23.4299 19.4423 23.6766 19.4423 23.9499C19.4423 24.3366 19.3623 24.6799 19.2023 24.9799C19.0423 25.2733 18.8256 25.5166 18.5523 25.7099C18.2856 25.9033 17.9823 26.0499 17.6423 26.1499C17.3023 26.2499 16.9523 26.2999 16.5923 26.2999C16.0923 26.2999 15.6256 26.2166 15.1923 26.0499C14.7656 25.8899 14.3956 25.6666 14.0823 25.3799C13.7689 25.0933 13.5323 24.7733 13.3723 24.4199L14.8523 23.3399ZM22.421 22.4999C22.421 22.8399 22.4843 23.1399 22.611 23.3999C22.7377 23.6599 22.9177 23.8633 23.151 24.0099C23.3843 24.1499 23.6643 24.2199 23.991 24.2199C24.3177 24.2199 24.5977 24.1499 24.831 24.0099C25.0643 23.8633 25.2443 23.6599 25.371 23.3999C25.4977 23.1399 25.561 22.8399 25.561 22.4999C25.561 22.1533 25.501 21.8533 25.381 21.5999C25.261 21.3399 25.0843 21.1399 24.851 20.9999C24.6243 20.8533 24.3377 20.7799 23.991 20.7799C23.6643 20.7799 23.3843 20.8533 23.151 20.9999C22.9177 21.1399 22.7377 21.3399 22.611 21.5999C22.4843 21.8533 22.421 22.1533 22.421 22.4999ZM20.091 22.4999C20.091 21.9399 20.191 21.4333 20.391 20.9799C20.591 20.5266 20.8677 20.1366 21.221 19.8099C21.5743 19.4833 21.9877 19.2333 22.461 19.0599C22.9343 18.8866 23.4443 18.7999 23.991 18.7999C24.551 18.7999 25.0677 18.8866 25.541 19.0599C26.0143 19.2333 26.4277 19.4833 26.781 19.8099C27.1343 20.1366 27.4077 20.5266 27.601 20.9799C27.7943 21.4333 27.891 21.9399 27.891 22.4999C27.891 23.0599 27.7943 23.5733 27.601 24.0399C27.4143 24.4999 27.1477 24.8999 26.801 25.2399C26.4543 25.5799 26.041 25.8399 25.561 26.0199C25.0877 26.2066 24.5643 26.2999 23.991 26.2999C23.4177 26.2999 22.891 26.2066 22.411 26.0199C21.9377 25.8399 21.5277 25.5799 21.181 25.2399C20.8343 24.8999 20.5643 24.4999 20.371 24.0399C20.1843 23.5733 20.091 23.0599 20.091 22.4999ZM28.8895 18.9999H31.0895V24.1499H33.9395V25.9999H28.8895V18.9999ZM34.6414 18.9999H36.9314V25.9999H34.6414V18.9999ZM37.3914 25.9999H36.1614V24.0999H37.2914C37.4847 24.0999 37.6814 24.0833 37.8814 24.0499C38.0814 24.0166 38.2647 23.9466 38.4314 23.8399C38.5981 23.7333 38.7314 23.5733 38.8314 23.3599C38.9381 23.1466 38.9914 22.8599 38.9914 22.4999C38.9914 22.1399 38.9381 21.8533 38.8314 21.6399C38.7314 21.4266 38.5981 21.2666 38.4314 21.1599C38.2647 21.0533 38.0814 20.9833 37.8814 20.9499C37.6814 20.9166 37.4847 20.8999 37.2914 20.8999H36.1614V18.9999H37.3914C38.2047 18.9999 38.9014 19.1399 39.4814 19.4199C40.0681 19.6999 40.5147 20.0999 40.8214 20.6199C41.1347 21.1399 41.2914 21.7666 41.2914 22.4999C41.2914 23.2266 41.1347 23.8533 40.8214 24.3799C40.5147 24.8999 40.0681 25.2999 39.4814 25.5799C38.9014 25.8599 38.2047 25.9999 37.3914 25.9999ZM18.9298 34.4999C18.9298 34.8399 18.9931 35.1399 19.1198 35.3999C19.2465 35.6599 19.4265 35.8633 19.6598 36.0099C19.8931 36.1499 20.1731 36.2199 20.4998 36.2199C20.8265 36.2199 21.1065 36.1499 21.3398 36.0099C21.5731 35.8633 21.7531 35.6599 21.8798 35.3999C22.0065 35.1399 22.0698 34.8399 22.0698 34.4999C22.0698 34.1533 22.0098 33.8533 21.8898 33.5999C21.7698 33.3399 21.5931 33.1399 21.3598 32.9999C21.1331 32.8533 20.8465 32.7799 20.4998 32.7799C20.1731 32.7799 19.8931 32.8533 19.6598 32.9999C19.4265 33.1399 19.2465 33.3399 19.1198 33.5999C18.9931 33.8533 18.9298 34.1533 18.9298 34.4999ZM16.5998 34.4999C16.5998 33.9399 16.6998 33.4333 16.8998 32.9799C17.0998 32.5266 17.3765 32.1366 17.7298 31.8099C18.0831 31.4833 18.4965 31.2333 18.9698 31.0599C19.4431 30.8866 19.9531 30.7999 20.4998 30.7999C21.0598 30.7999 21.5765 30.8866 22.0498 31.0599C22.5231 31.2333 22.9365 31.4833 23.2898 31.8099C23.6431 32.1366 23.9165 32.5266 24.1098 32.9799C24.3031 33.4333 24.3998 33.9399 24.3998 34.4999C24.3998 35.0599 24.3031 35.5733 24.1098 36.0399C23.9231 36.4999 23.6565 36.8999 23.3098 37.2399C22.9631 37.5799 22.5498 37.8399 22.0698 38.0199C21.5965 38.2066 21.0731 38.2999 20.4998 38.2999C19.9265 38.2999 19.3998 38.2066 18.9198 38.0199C18.4465 37.8399 18.0365 37.5799 17.6898 37.2399C17.3431 36.8999 17.0731 36.4999 16.8798 36.0399C16.6931 35.5733 16.5998 35.0599 16.5998 34.4999ZM25.3482 30.9999H27.5482V35.4999C27.5482 35.7799 27.6182 36.0099 27.7582 36.1899C27.9049 36.3633 28.1282 36.4499 28.4282 36.4499C28.7282 36.4499 28.9482 36.3633 29.0882 36.1899C29.2349 36.0099 29.3082 35.7799 29.3082 35.4999V30.9999H31.5082V35.6999C31.5082 36.1999 31.4249 36.6233 31.2582 36.9699C31.0982 37.3099 30.8749 37.5866 30.5882 37.7999C30.3016 38.0066 29.9716 38.1566 29.5982 38.2499C29.2316 38.3499 28.8416 38.3999 28.4282 38.3999C28.0149 38.3999 27.6216 38.3499 27.2482 38.2499C26.8816 38.1566 26.5549 38.0066 26.2682 37.7999C25.9816 37.5866 25.7549 37.3099 25.5882 36.9699C25.4282 36.6233 25.3482 36.1999 25.3482 35.6999V30.9999ZM32.1592 32.9499V30.9999H38.3592V32.9499H36.3592V37.9999H34.1592V32.9499H32.1592Z" fill="white"/>
</svg>
